<svg xmlns="http://www.w3.org/2000/svg" xmlns:xlink="http://www.w3.org/1999/xlink" width="398" zoomAndPan="magnify" viewBox="0 0 298.5 68.249996" height="91" preserveAspectRatio="xMidYMid meet" version="1.0"><defs><clipPath id="ff40c32db3"><path d="M 1.890625 9.363281 L 216.792969 9.363281 L 216.792969 58.394531 L 1.890625 58.394531 Z M 1.890625 9.363281 " clip-rule="nonzero"/></clipPath><clipPath id="52a76d7d7a"><path d="M 228.386719 0.0703125 L 247 0.0703125 L 247 67.507812 L 228.386719 67.507812 Z M 228.386719 0.0703125 " clip-rule="nonzero"/></clipPath><clipPath id="b1b8b96dd5"><path d="M 251 0.0703125 L 270 0.0703125 L 270 67.507812 L 251 67.507812 Z M 251 0.0703125 " clip-rule="nonzero"/></clipPath><clipPath id="bdd522d743"><path d="M 273 0.0703125 L 293 0.0703125 L 293 67.507812 L 273 67.507812 Z M 273 0.0703125 " clip-rule="nonzero"/></clipPath></defs><g clip-path="url(#ff40c32db3)"><path fill="#ffffff" d="M 19.828125 58.394531 C 16.242188 58.394531 12.808594 57.820312 9.523438 56.671875 C 6.234375 55.523438 3.691406 54.011719 1.898438 52.128906 L 3.898438 48.203125 C 5.644531 49.945312 7.964844 51.355469 10.863281 52.429688 C 13.757812 53.515625 16.75 54.054688 19.828125 54.054688 C 24.152344 54.054688 27.390625 53.261719 29.554688 51.671875 C 31.714844 50.09375 32.792969 48.042969 32.792969 45.515625 C 32.792969 43.589844 32.210938 42.050781 31.042969 40.902344 C 29.867188 39.753906 28.425781 38.871094 26.726562 38.246094 C 25.023438 37.628906 22.65625 36.957031 19.621094 36.21875 C 15.988281 35.300781 13.09375 34.417969 10.933594 33.5625 C 8.769531 32.71875 6.921875 31.421875 5.386719 29.679688 C 3.839844 27.933594 3.070312 25.570312 3.070312 22.585938 C 3.070312 20.152344 3.714844 17.933594 5 15.933594 C 6.289062 13.941406 8.265625 12.347656 10.933594 11.15625 C 13.597656 9.960938 16.910156 9.363281 20.863281 9.363281 C 23.621094 9.363281 26.324219 9.742188 28.972656 10.492188 C 31.613281 11.257812 33.898438 12.300781 35.828125 13.632812 L 34.105469 17.695312 C 32.082031 16.367188 29.921875 15.363281 27.621094 14.695312 C 25.324219 14.035156 23.070312 13.703125 20.863281 13.703125 C 16.632812 13.703125 13.453125 14.515625 11.316406 16.140625 C 9.175781 17.773438 8.105469 19.878906 8.105469 22.449219 C 8.105469 24.375 8.691406 25.921875 9.871094 27.089844 C 11.039062 28.265625 12.507812 29.160156 14.285156 29.773438 C 16.050781 30.398438 18.425781 31.078125 21.414062 31.8125 C 24.957031 32.6875 27.820312 33.542969 30.007812 34.390625 C 32.1875 35.242188 34.035156 36.527344 35.554688 38.246094 C 37.070312 39.972656 37.828125 42.304688 37.828125 45.242188 C 37.828125 47.675781 37.175781 49.890625 35.871094 51.894531 C 34.554688 53.886719 32.542969 55.464844 29.828125 56.632812 C 27.117188 57.804688 23.78125 58.394531 19.828125 58.394531 Z M 87.488281 57.980469 L 81.898438 57.980469 L 70.863281 42.488281 C 69.625 42.625 68.335938 42.695312 67.003906 42.695312 L 54.035156 42.695312 L 54.035156 57.980469 L 48.933594 57.980469 L 48.933594 9.777344 L 67.003906 9.777344 C 73.164062 9.777344 77.992188 11.246094 81.488281 14.183594 C 84.980469 17.121094 86.726562 21.164062 86.726562 26.304688 C 86.726562 30.070312 85.773438 33.25 83.859375 35.847656 C 81.957031 38.4375 79.234375 40.304688 75.691406 41.453125 Z M 66.863281 38.355469 C 71.648438 38.355469 75.300781 37.300781 77.832031 35.1875 C 80.359375 33.074219 81.625 30.113281 81.625 26.304688 C 81.625 22.402344 80.359375 19.40625 77.832031 17.3125 C 75.300781 15.226562 71.648438 14.183594 66.863281 14.183594 L 54.035156 14.183594 L 54.035156 38.355469 Z M 98.785156 57.980469 L 98.785156 9.777344 L 103.902344 9.777344 L 103.902344 57.980469 Z M 165.546875 9.777344 L 169.753906 9.777344 L 169.753906 57.980469 L 164.855469 57.980469 L 164.855469 19.417969 L 145.890625 51.851562 L 143.476562 51.851562 L 124.507812 19.625 L 124.507812 57.980469 L 119.613281 57.980469 L 119.613281 9.777344 L 123.820312 9.777344 L 144.785156 45.515625 Z M 198.789062 58.394531 C 195.203125 58.394531 191.765625 57.820312 188.484375 56.671875 C 185.191406 55.523438 182.648438 54.011719 180.855469 52.128906 L 182.855469 48.203125 C 184.601562 49.945312 186.925781 51.355469 189.820312 52.429688 C 192.71875 53.515625 195.707031 54.054688 198.789062 54.054688 C 203.109375 54.054688 206.351562 53.261719 208.511719 51.671875 C 210.671875 50.09375 211.753906 48.042969 211.753906 45.515625 C 211.753906 43.589844 211.167969 42.050781 210.003906 40.902344 C 208.824219 39.753906 207.386719 38.871094 205.683594 38.246094 C 203.984375 37.628906 201.617188 36.957031 198.582031 36.21875 C 194.949219 35.300781 192.050781 34.417969 189.890625 33.5625 C 187.730469 32.71875 185.882812 31.421875 184.347656 29.679688 C 182.800781 27.933594 182.027344 25.570312 182.027344 22.585938 C 182.027344 20.152344 182.671875 17.933594 183.960938 15.933594 C 185.246094 13.941406 187.222656 12.347656 189.890625 11.15625 C 192.558594 9.960938 195.867188 9.363281 199.820312 9.363281 C 202.582031 9.363281 205.285156 9.742188 207.933594 10.492188 C 210.570312 11.257812 212.855469 12.300781 214.789062 13.632812 L 213.0625 17.695312 C 211.042969 16.367188 208.878906 15.363281 206.582031 14.695312 C 204.28125 14.035156 202.027344 13.703125 199.820312 13.703125 C 195.59375 13.703125 192.410156 14.515625 190.277344 16.140625 C 188.132812 17.773438 187.0625 19.878906 187.0625 22.449219 C 187.0625 24.375 187.652344 25.921875 188.828125 27.089844 C 189.996094 28.265625 191.464844 29.160156 193.230469 29.773438 C 195.003906 30.398438 197.386719 31.078125 200.375 31.8125 C 203.914062 32.6875 206.777344 33.542969 208.96875 34.390625 C 211.148438 35.242188 212.996094 36.527344 214.511719 38.246094 C 216.03125 39.972656 216.789062 42.304688 216.789062 45.242188 C 216.789062 47.675781 216.136719 49.890625 214.828125 51.894531 C 213.515625 53.886719 211.5 55.464844 208.789062 56.632812 C 206.074219 57.804688 202.742188 58.394531 198.789062 58.394531 Z M 198.789062 58.394531 " fill-opacity="1" fill-rule="nonzero"/></g><g clip-path="url(#52a76d7d7a)"><path fill="#ffffff" d="M 228.386719 0 L 246.9375 0 L 246.9375 67.757812 L 228.386719 67.757812 Z M 228.386719 0 " fill-opacity="1" fill-rule="nonzero"/></g><g clip-path="url(#b1b8b96dd5)"><path fill="#ffffff" d="M 251.007812 0 L 269.558594 0 L 269.558594 67.757812 L 251.007812 67.757812 Z M 251.007812 0 " fill-opacity="0.749" fill-rule="nonzero"/></g><g clip-path="url(#bdd522d743)"><path fill="#ffffff" d="M 273.628906 0 L 292.179688 0 L 292.179688 67.757812 L 273.628906 67.757812 Z M 273.628906 0 " fill-opacity="0.502" fill-rule="nonzero"/></g></svg>