<svg xmlns="http://www.w3.org/2000/svg" xmlns:xlink="http://www.w3.org/1999/xlink" width="261" zoomAndPan="magnify" viewBox="0 0 195.75 68.249996" height="91" preserveAspectRatio="xMidYMid meet" version="1.0"><defs><clipPath id="3528e77be5"><path d="M 1.089844 41.832031 L 194.421875 41.832031 L 194.421875 67.507812 L 1.089844 67.507812 Z M 1.089844 41.832031 " clip-rule="nonzero"/></clipPath><clipPath id="da47c17e46"><path d="M 79.929688 0.046875 L 115.585938 0.046875 L 115.585938 35.730469 L 79.929688 35.730469 Z M 79.929688 0.046875 " clip-rule="nonzero"/></clipPath></defs><g clip-path="url(#3528e77be5)"><path fill="#ffffff" d="M 1.101562 43.980469 L 4.148438 43.980469 L 4.148438 67.382812 L 1.101562 67.382812 Z M 15.84375 67.6875 C 14.4375 67.6875 13.175781 67.445312 12.058594 66.960938 C 10.941406 66.480469 10.058594 65.808594 9.410156 64.945312 C 8.761719 64.085938 8.40625 63.097656 8.339844 61.976562 L 11.488281 61.976562 C 11.578125 62.894531 12.007812 63.644531 12.773438 64.226562 C 13.546875 64.808594 14.558594 65.101562 15.808594 65.101562 C 16.972656 65.101562 17.886719 64.84375 18.558594 64.328125 C 19.226562 63.8125 19.5625 63.164062 19.5625 62.382812 C 19.5625 61.574219 19.207031 60.976562 18.492188 60.582031 C 17.777344 60.191406 16.671875 59.808594 15.171875 59.425781 C 13.8125 59.066406 12.699219 58.703125 11.835938 58.332031 C 10.980469 57.964844 10.242188 57.417969 9.625 56.6875 C 9.011719 55.960938 8.707031 55.003906 8.707031 53.820312 C 8.707031 52.878906 8.984375 52.015625 9.542969 51.234375 C 10.101562 50.449219 10.894531 49.828125 11.921875 49.367188 C 12.949219 48.910156 14.125 48.683594 15.441406 48.683594 C 17.472656 48.683594 19.117188 49.195312 20.367188 50.226562 C 21.617188 51.257812 22.289062 52.667969 22.378906 54.457031 L 19.328125 54.457031 C 19.261719 53.496094 18.875 52.722656 18.167969 52.140625 C 17.46875 51.558594 16.523438 51.265625 15.339844 51.265625 C 14.246094 51.265625 13.375 51.503906 12.726562 51.972656 C 12.078125 52.441406 11.757812 53.058594 11.757812 53.820312 C 11.757812 54.421875 11.949219 54.921875 12.339844 55.308594 C 12.730469 55.703125 13.222656 56.019531 13.8125 56.257812 C 14.40625 56.488281 15.230469 56.75 16.28125 57.042969 C 17.597656 57.402344 18.667969 57.753906 19.496094 58.097656 C 20.324219 58.445312 21.03125 58.96875 21.621094 59.660156 C 22.214844 60.355469 22.523438 61.261719 22.546875 62.382812 C 22.546875 63.386719 22.265625 64.292969 21.707031 65.101562 C 21.148438 65.90625 20.359375 66.539062 19.34375 66.996094 C 18.328125 67.457031 17.160156 67.6875 15.84375 67.6875 Z M 41.242188 67.382812 L 37.085938 67.382812 L 29.882812 59.257812 L 29.882812 67.382812 L 26.835938 67.382812 L 26.835938 42.539062 L 29.882812 42.539062 L 29.882812 57.144531 L 36.945312 48.984375 L 41.207031 48.984375 L 32.5625 58.152344 Z M 52.089844 67.6875 C 50.371094 67.6875 48.8125 67.292969 47.421875 66.511719 C 46.023438 65.726562 44.925781 64.613281 44.136719 63.167969 C 43.339844 61.726562 42.945312 60.054688 42.945312 58.152344 C 42.945312 56.269531 43.351562 54.605469 44.171875 53.160156 C 44.984375 51.71875 46.09375 50.613281 47.5 49.835938 C 48.910156 49.066406 50.484375 48.683594 52.226562 48.683594 C 53.96875 48.683594 55.542969 49.066406 56.949219 49.835938 C 58.355469 50.613281 59.46875 51.714844 60.285156 53.148438 C 61.101562 54.582031 61.507812 56.246094 61.507812 58.152344 C 61.507812 60.054688 61.089844 61.726562 60.253906 63.167969 C 59.414062 64.613281 58.277344 65.726562 56.847656 66.511719 C 55.417969 67.292969 53.832031 67.6875 52.089844 67.6875 Z M 52.089844 65 C 53.1875 65 54.214844 64.742188 55.175781 64.226562 C 56.132812 63.714844 56.910156 62.941406 57.507812 61.910156 C 58.097656 60.882812 58.390625 59.628906 58.390625 58.152344 C 58.390625 56.671875 58.101562 55.417969 57.519531 54.390625 C 56.9375 53.359375 56.179688 52.59375 55.242188 52.085938 C 54.304688 51.585938 53.285156 51.335938 52.191406 51.335938 C 51.074219 51.335938 50.054688 51.585938 49.128906 52.085938 C 48.199219 52.59375 47.457031 53.359375 46.898438 54.390625 C 46.339844 55.417969 46.058594 56.671875 46.058594 58.152344 C 46.058594 59.648438 46.335938 60.914062 46.882812 61.945312 C 47.429688 62.972656 48.160156 63.742188 49.074219 64.246094 C 49.992188 64.75 50.996094 65 52.089844 65 Z M 65.527344 42.539062 L 68.578125 42.539062 L 68.578125 67.382812 L 65.527344 67.382812 Z M 89.453125 67.382812 L 87.574219 62.179688 L 77.390625 62.179688 L 75.511719 67.382812 L 72.296875 67.382812 L 80.738281 44.117188 L 84.257812 44.117188 L 92.667969 67.382812 Z M 78.261719 59.695312 L 86.703125 59.695312 L 82.480469 47.875 Z M 99.402344 51.972656 C 99.9375 50.921875 100.703125 50.105469 101.695312 49.523438 C 102.691406 48.941406 103.902344 48.648438 105.332031 48.648438 L 105.332031 51.804688 L 104.527344 51.804688 C 101.113281 51.804688 99.402344 53.664062 99.402344 57.378906 L 99.402344 67.382812 L 96.355469 67.382812 L 96.355469 48.984375 L 99.402344 48.984375 Z M 107.707031 58.152344 C 107.707031 56.246094 108.085938 54.585938 108.84375 53.160156 C 109.605469 51.742188 110.660156 50.640625 112.015625 49.855469 C 113.363281 49.074219 114.910156 48.683594 116.652344 48.683594 C 118.90625 48.683594 120.769531 49.230469 122.234375 50.328125 C 123.695312 51.425781 124.660156 52.945312 125.128906 54.894531 L 121.84375 54.894531 C 121.53125 53.773438 120.925781 52.890625 120.023438 52.242188 C 119.117188 51.59375 117.992188 51.265625 116.652344 51.265625 C 114.910156 51.265625 113.503906 51.863281 112.429688 53.058594 C 111.359375 54.261719 110.820312 55.957031 110.820312 58.152344 C 110.820312 60.367188 111.359375 62.078125 112.429688 63.289062 C 113.503906 64.496094 114.910156 65.101562 116.652344 65.101562 C 117.992188 65.101562 119.109375 64.789062 120.003906 64.160156 C 120.894531 63.535156 121.511719 62.636719 121.84375 61.472656 L 125.128906 61.472656 C 124.636719 63.355469 123.65625 64.859375 122.179688 65.988281 C 120.707031 67.121094 118.863281 67.6875 116.652344 67.6875 C 114.910156 67.6875 113.363281 67.292969 112.015625 66.511719 C 110.660156 65.726562 109.605469 64.621094 108.84375 63.1875 C 108.085938 61.753906 107.707031 60.074219 107.707031 58.152344 Z M 138.296875 48.648438 C 139.683594 48.648438 140.933594 48.945312 142.050781 49.535156 C 143.167969 50.128906 144.042969 51.019531 144.683594 52.207031 C 145.316406 53.394531 145.636719 54.835938 145.636719 56.539062 L 145.636719 67.382812 L 142.621094 67.382812 L 142.621094 56.976562 C 142.621094 55.140625 142.160156 53.734375 141.246094 52.757812 C 140.328125 51.785156 139.078125 51.300781 137.492188 51.300781 C 135.882812 51.300781 134.605469 51.804688 133.660156 52.8125 C 132.707031 53.820312 132.234375 55.285156 132.234375 57.210938 L 132.234375 67.382812 L 129.183594 67.382812 L 129.183594 42.539062 L 132.234375 42.539062 L 132.234375 51.601562 C 132.835938 50.664062 133.667969 49.9375 134.730469 49.421875 C 135.789062 48.90625 136.980469 48.648438 138.296875 48.648438 Z M 152.203125 45.996094 C 151.621094 45.996094 151.128906 45.792969 150.726562 45.390625 C 150.324219 44.988281 150.125 44.496094 150.125 43.914062 C 150.125 43.332031 150.324219 42.839844 150.726562 42.4375 C 151.128906 42.035156 151.621094 41.832031 152.203125 41.832031 C 152.761719 41.832031 153.234375 42.035156 153.625 42.4375 C 154.015625 42.839844 154.210938 43.332031 154.210938 43.914062 C 154.210938 44.496094 154.015625 44.988281 153.625 45.390625 C 153.234375 45.792969 152.761719 45.996094 152.203125 45.996094 Z M 150.628906 48.984375 L 153.675781 48.984375 L 153.675781 67.382812 L 150.628906 67.382812 Z M 159.976562 48.984375 L 165.707031 64.5625 L 171.402344 48.984375 L 174.652344 48.984375 L 167.449219 67.382812 L 163.894531 67.382812 L 156.691406 48.984375 Z M 194.414062 57.480469 C 194.414062 58.0625 194.378906 58.675781 194.3125 59.324219 L 179.636719 59.324219 C 179.75 61.140625 180.371094 62.554688 181.5 63.570312 C 182.625 64.589844 183.992188 65.101562 185.601562 65.101562 C 186.917969 65.101562 188.019531 64.792969 188.90625 64.175781 C 189.785156 63.5625 190.40625 62.738281 190.761719 61.710938 L 194.046875 61.710938 C 193.554688 63.476562 192.570312 64.917969 191.097656 66.027344 C 189.621094 67.132812 187.789062 67.6875 185.601562 67.6875 C 183.859375 67.6875 182.300781 67.292969 180.929688 66.511719 C 179.554688 65.726562 178.476562 64.613281 177.695312 63.167969 C 176.914062 61.726562 176.523438 60.054688 176.523438 58.152344 C 176.523438 56.246094 176.902344 54.582031 177.660156 53.148438 C 178.421875 51.714844 179.488281 50.613281 180.863281 49.835938 C 182.234375 49.066406 183.816406 48.683594 185.601562 48.683594 C 187.34375 48.683594 188.886719 49.0625 190.226562 49.824219 C 191.566406 50.585938 192.601562 51.628906 193.328125 52.960938 C 194.050781 54.292969 194.414062 55.800781 194.414062 57.480469 Z M 191.265625 56.839844 C 191.265625 55.675781 191.007812 54.675781 190.492188 53.832031 C 189.980469 52.996094 189.28125 52.359375 188.402344 51.917969 C 187.519531 51.484375 186.539062 51.265625 185.46875 51.265625 C 183.925781 51.265625 182.617188 51.761719 181.535156 52.746094 C 180.449219 53.730469 179.828125 55.09375 179.671875 56.839844 Z M 191.265625 56.839844 " fill-opacity="1" fill-rule="nonzero"/></g><g clip-path="url(#da47c17e46)"><path fill="#ffffff" d="M 104.007812 0 L 79.929688 0 L 79.929688 35.730469 L 88.816406 28.316406 L 97.75 35.730469 L 106.667969 28.324219 L 115.585938 35.730469 L 115.585938 11.5 Z M 99.984375 15.632812 L 99.984375 4.464844 L 111.128906 15.632812 Z M 99.984375 15.632812 " fill-opacity="1" fill-rule="nonzero"/></g></svg>