<svg xmlns="http://www.w3.org/2000/svg" version="1.1" xmlns:xlink="http://www.w3.org/1999/xlink" xmlns:svgjs="http://svgjs.dev/svgjs" width="1000" height="348" viewBox="0 0 1000 348"><g transform="matrix(1,0,0,1,-0.6060606060606233,0.23514955829708128)"><svg viewBox="0 0 396 138" data-background-color="#ffffff" preserveAspectRatio="xMidYMid meet" height="348" width="1000" xmlns="http://www.w3.org/2000/svg" xmlns:xlink="http://www.w3.org/1999/xlink"><g id="tight-bounds" transform="matrix(1,0,0,1,0.2400000000000091,-0.09324896277297512)"><svg viewBox="0 0 395.52 138.18649792554595" height="138.18649792554595" width="395.52"><g><svg viewBox="0 0 395.52 138.18649792554595" height="138.18649792554595" width="395.52"><g transform="matrix(1,0,0,1,0,85.40479948533797)"><svg viewBox="0 0 395.52 52.78169844020798" height="52.78169844020798" width="395.52"><g id="textblocktransform"><svg viewBox="0 0 395.52 52.78169844020798" height="52.78169844020798" width="395.52" id="textblock"><g><svg viewBox="0 0 395.52 52.78169844020798" height="52.78169844020798" width="395.52"><g transform="matrix(1,0,0,1,0,0)"><svg width="395.52" viewBox="3.8499999046325684 -38.04999923706055 288.4700012207031 38.5" height="52.78169844020798" data-palette-color="#38b6ff"><path d="M3.85-34.85L8.4-34.85 8.4 0 3.85 0 3.85-34.85ZM25.85 0.45Q22.7 0.45 20.2-0.63 17.7-1.7 16.25-3.63 14.8-5.55 14.65-8.05L14.65-8.05 19.35-8.05Q19.55-6 21.27-4.7 23-3.4 25.8-3.4L25.8-3.4Q28.4-3.4 29.9-4.55 31.4-5.7 31.4-7.45L31.4-7.45Q31.4-9.25 29.8-10.13 28.2-11 24.85-11.85L24.85-11.85Q21.8-12.65 19.87-13.48 17.95-14.3 16.57-15.93 15.2-17.55 15.2-20.2L15.2-20.2Q15.2-22.3 16.45-24.05 17.7-25.8 20-26.83 22.3-27.85 25.25-27.85L25.25-27.85Q29.8-27.85 32.6-25.55 35.4-23.25 35.6-19.25L35.6-19.25 31.05-19.25Q30.9-21.4 29.32-22.7 27.75-24 25.1-24L25.1-24Q22.65-24 21.2-22.95 19.75-21.9 19.75-20.2L19.75-20.2Q19.75-18.85 20.62-17.98 21.5-17.1 22.82-16.57 24.15-16.05 26.5-15.4L26.5-15.4Q29.45-14.6 31.3-13.83 33.15-13.05 34.47-11.5 35.8-9.95 35.85-7.45L35.85-7.45Q35.85-5.2 34.6-3.4 33.35-1.6 31.07-0.58 28.8 0.45 25.85 0.45L25.85 0.45ZM63.75 0L57.55 0 46.8-12.1 46.8 0 42.25 0 42.25-37 46.8-37 46.8-15.25 57.34-27.4 63.7-27.4 50.8-13.75 63.75 0ZM79.94 0.45Q76.09 0.45 72.97-1.3 69.84-3.05 68.07-6.28 66.29-9.5 66.29-13.75L66.29-13.75Q66.29-17.95 68.12-21.18 69.94-24.4 73.09-26.13 76.24-27.85 80.14-27.85L80.14-27.85Q84.04-27.85 87.19-26.13 90.34-24.4 92.17-21.2 93.99-18 93.99-13.75L93.99-13.75Q93.99-9.5 92.12-6.28 90.24-3.05 87.04-1.3 83.84 0.45 79.94 0.45L79.94 0.45ZM79.94-3.55Q82.39-3.55 84.54-4.7 86.69-5.85 88.02-8.15 89.34-10.45 89.34-13.75L89.34-13.75Q89.34-17.05 88.04-19.35 86.74-21.65 84.64-22.78 82.54-23.9 80.09-23.9L80.09-23.9Q77.59-23.9 75.52-22.78 73.44-21.65 72.19-19.35 70.94-17.05 70.94-13.75L70.94-13.75Q70.94-10.4 72.17-8.1 73.39-5.8 75.44-4.67 77.49-3.55 79.94-3.55L79.94-3.55ZM99.99-37L104.54-37 104.54 0 99.99 0 99.99-37ZM135.69 0L132.89-7.75 117.69-7.75 114.89 0 110.09 0 122.69-34.65 127.94-34.65 140.49 0 135.69 0ZM118.99-11.45L131.59-11.45 125.29-29.05 118.99-11.45ZM150.54-22.95Q151.74-25.3 153.96-26.6 156.19-27.9 159.39-27.9L159.39-27.9 159.39-23.2 158.19-23.2Q150.54-23.2 150.54-14.9L150.54-14.9 150.54 0 145.99 0 145.99-27.4 150.54-27.4 150.54-22.95ZM162.93-13.75Q162.93-18 164.63-21.18 166.33-24.35 169.36-26.1 172.38-27.85 176.28-27.85L176.28-27.85Q181.33-27.85 184.61-25.4 187.88-22.95 188.93-18.6L188.93-18.6 184.03-18.6Q183.33-21.1 181.31-22.55 179.28-24 176.28-24L176.28-24Q172.38-24 169.98-21.33 167.58-18.65 167.58-13.75L167.58-13.75Q167.58-8.8 169.98-6.1 172.38-3.4 176.28-3.4L176.28-3.4Q179.28-3.4 181.28-4.8 183.28-6.2 184.03-8.8L184.03-8.8 188.93-8.8Q187.83-4.6 184.53-2.08 181.23 0.45 176.28 0.45L176.28 0.45Q172.38 0.45 169.36-1.3 166.33-3.05 164.63-6.25 162.93-9.45 162.93-13.75L162.93-13.75ZM208.58-27.9Q211.68-27.9 214.18-26.58 216.68-25.25 218.11-22.6 219.53-19.95 219.53-16.15L219.53-16.15 219.53 0 215.03 0 215.03-15.5Q215.03-19.6 212.98-21.78 210.93-23.95 207.38-23.95L207.38-23.95Q203.78-23.95 201.66-21.7 199.53-19.45 199.53-15.15L199.53-15.15 199.53 0 194.98 0 194.98-37 199.53-37 199.53-23.5Q200.88-25.6 203.26-26.75 205.63-27.9 208.58-27.9L208.58-27.9ZM229.33-31.85Q228.03-31.85 227.13-32.75 226.23-33.65 226.23-34.95L226.23-34.95Q226.23-36.25 227.13-37.15 228.03-38.05 229.33-38.05L229.33-38.05Q230.58-38.05 231.45-37.15 232.33-36.25 232.33-34.95L232.33-34.95Q232.33-33.65 231.45-32.75 230.58-31.85 229.33-31.85L229.33-31.85ZM226.98-27.4L231.53-27.4 231.53 0 226.98 0 226.98-27.4ZM240.93-27.4L249.48-4.2 257.98-27.4 262.83-27.4 252.08 0 246.78 0 236.03-27.4 240.93-27.4ZM292.32-14.75Q292.32-13.45 292.17-12L292.17-12 270.27-12Q270.52-7.95 273.05-5.68 275.57-3.4 279.17-3.4L279.17-3.4Q282.12-3.4 284.1-4.78 286.07-6.15 286.87-8.45L286.87-8.45 291.77-8.45Q290.67-4.5 287.37-2.02 284.07 0.45 279.17 0.45L279.17 0.45Q275.27 0.45 272.2-1.3 269.12-3.05 267.37-6.28 265.62-9.5 265.62-13.75L265.62-13.75Q265.62-18 267.32-21.2 269.02-24.4 272.1-26.13 275.17-27.85 279.17-27.85L279.17-27.85Q283.07-27.85 286.07-26.15 289.07-24.45 290.7-21.48 292.32-18.5 292.32-14.75L292.32-14.75ZM287.62-15.7Q287.62-18.3 286.47-20.18 285.32-22.05 283.35-23.03 281.37-24 278.97-24L278.97-24Q275.52-24 273.1-21.8 270.67-19.6 270.32-15.7L270.32-15.7 287.62-15.7Z" opacity="1" transform="matrix(1,0,0,1,0,0)" fill="#38b6ff" class="wordmark-text-0" data-fill-palette-color="primary" id="text-0"></path></svg></g></svg></g></svg></g></svg></g><g transform="matrix(1,0,0,1,161.28784637781627,0)"><svg viewBox="0 0 72.94430724436744 72.94430724436744" height="72.94430724436744" width="72.94430724436744"><g><svg xmlns="http://www.w3.org/2000/svg" xmlns:xlink="http://www.w3.org/1999/xlink" version="1.1" x="0" y="0" viewBox="0 0 100 100" style="enable-background:new 0 0 100 100;" xml:space="preserve" height="72.94430724436744" width="72.94430724436744" class="icon-icon-0" data-fill-palette-color="accent" id="icon-0"><path d="M67.529 0H0v100l24.927-20.752L49.976 100l25.013-20.728L100 100V32.189L67.529 0zM56.25 43.75V12.5L87.5 43.75H56.25z" fill="#38b6ff" data-fill-palette-color="accent"></path></svg></g></svg></g><g></g></svg></g><defs></defs></svg><rect width="395.52" height="138.18649792554595" fill="none" stroke="none" visibility="hidden"></rect></g></svg></g></svg>