<svg xmlns="http://www.w3.org/2000/svg" xmlns:xlink="http://www.w3.org/1999/xlink" width="398" zoomAndPan="magnify" viewBox="0 0 298.5 68.249996" height="91" preserveAspectRatio="xMidYMid meet" version="1.0"><defs><clipPath id="32c8d01291"><path d="M 1.890625 9.257812 L 216.792969 9.257812 L 216.792969 58.289062 L 1.890625 58.289062 Z M 1.890625 9.257812 " clip-rule="nonzero"/></clipPath><clipPath id="24c4a15e77"><path d="M 228.386719 0 L 247 0 L 247 67.507812 L 228.386719 67.507812 Z M 228.386719 0 " clip-rule="nonzero"/></clipPath><clipPath id="7e21c135b0"><path d="M 251 0 L 270 0 L 270 67.507812 L 251 67.507812 Z M 251 0 " clip-rule="nonzero"/></clipPath><clipPath id="b4606834a0"><path d="M 273 0 L 293 0 L 293 67.507812 L 273 67.507812 Z M 273 0 " clip-rule="nonzero"/></clipPath></defs><g clip-path="url(#32c8d01291)"><path fill="#38b6ff" d="M 19.828125 58.289062 C 16.242188 58.289062 12.808594 57.714844 9.523438 56.566406 C 6.234375 55.417969 3.691406 53.90625 1.898438 52.023438 L 3.898438 48.097656 C 5.644531 49.839844 7.964844 51.25 10.863281 52.324219 C 13.757812 53.410156 16.75 53.949219 19.828125 53.949219 C 24.152344 53.949219 27.390625 53.15625 29.554688 51.566406 C 31.714844 49.988281 32.792969 47.9375 32.792969 45.410156 C 32.792969 43.484375 32.210938 41.945312 31.042969 40.796875 C 29.867188 39.648438 28.425781 38.765625 26.726562 38.140625 C 25.023438 37.523438 22.65625 36.851562 19.621094 36.113281 C 15.988281 35.195312 13.09375 34.3125 10.933594 33.457031 C 8.769531 32.613281 6.921875 31.316406 5.386719 29.574219 C 3.839844 27.828125 3.070312 25.464844 3.070312 22.480469 C 3.070312 20.046875 3.714844 17.828125 5 15.828125 C 6.289062 13.835938 8.265625 12.242188 10.933594 11.050781 C 13.597656 9.855469 16.910156 9.257812 20.863281 9.257812 C 23.621094 9.257812 26.324219 9.636719 28.972656 10.386719 C 31.613281 11.148438 33.898438 12.195312 35.828125 13.527344 L 34.105469 17.589844 C 32.082031 16.261719 29.921875 15.257812 27.621094 14.589844 C 25.324219 13.929688 23.070312 13.597656 20.863281 13.597656 C 16.632812 13.597656 13.453125 14.410156 11.316406 16.035156 C 9.175781 17.667969 8.105469 19.773438 8.105469 22.34375 C 8.105469 24.269531 8.691406 25.816406 9.871094 26.984375 C 11.039062 28.160156 12.507812 29.054688 14.285156 29.667969 C 16.050781 30.292969 18.425781 30.972656 21.414062 31.707031 C 24.957031 32.582031 27.820312 33.4375 30.007812 34.285156 C 32.1875 35.136719 34.035156 36.421875 35.554688 38.140625 C 37.070312 39.867188 37.828125 42.199219 37.828125 45.136719 C 37.828125 47.570312 37.175781 49.785156 35.871094 51.789062 C 34.554688 53.78125 32.542969 55.359375 29.828125 56.527344 C 27.117188 57.699219 23.78125 58.289062 19.828125 58.289062 Z M 87.488281 57.875 L 81.898438 57.875 L 70.863281 42.382812 C 69.625 42.519531 68.335938 42.589844 67.003906 42.589844 L 54.035156 42.589844 L 54.035156 57.875 L 48.933594 57.875 L 48.933594 9.671875 L 67.003906 9.671875 C 73.164062 9.671875 77.992188 11.140625 81.488281 14.078125 C 84.980469 17.015625 86.726562 21.058594 86.726562 26.199219 C 86.726562 29.964844 85.773438 33.144531 83.859375 35.742188 C 81.957031 38.332031 79.234375 40.199219 75.691406 41.347656 Z M 66.863281 38.25 C 71.648438 38.25 75.300781 37.195312 77.832031 35.082031 C 80.359375 32.96875 81.625 30.007812 81.625 26.199219 C 81.625 22.296875 80.359375 19.300781 77.832031 17.207031 C 75.300781 15.121094 71.648438 14.078125 66.863281 14.078125 L 54.035156 14.078125 L 54.035156 38.25 Z M 98.785156 57.875 L 98.785156 9.671875 L 103.902344 9.671875 L 103.902344 57.875 Z M 165.546875 9.671875 L 169.753906 9.671875 L 169.753906 57.875 L 164.855469 57.875 L 164.855469 19.3125 L 145.890625 51.746094 L 143.476562 51.746094 L 124.507812 19.519531 L 124.507812 57.875 L 119.613281 57.875 L 119.613281 9.671875 L 123.820312 9.671875 L 144.785156 45.410156 Z M 198.789062 58.289062 C 195.203125 58.289062 191.765625 57.714844 188.484375 56.566406 C 185.191406 55.417969 182.648438 53.90625 180.855469 52.023438 L 182.855469 48.097656 C 184.601562 49.839844 186.925781 51.25 189.820312 52.324219 C 192.71875 53.410156 195.707031 53.949219 198.789062 53.949219 C 203.109375 53.949219 206.351562 53.15625 208.511719 51.566406 C 210.671875 49.988281 211.753906 47.9375 211.753906 45.410156 C 211.753906 43.484375 211.167969 41.945312 210.003906 40.796875 C 208.824219 39.648438 207.386719 38.765625 205.683594 38.140625 C 203.984375 37.523438 201.617188 36.851562 198.582031 36.113281 C 194.949219 35.195312 192.050781 34.3125 189.890625 33.457031 C 187.730469 32.613281 185.882812 31.316406 184.347656 29.574219 C 182.800781 27.828125 182.027344 25.464844 182.027344 22.480469 C 182.027344 20.046875 182.671875 17.828125 183.960938 15.828125 C 185.246094 13.835938 187.222656 12.242188 189.890625 11.050781 C 192.558594 9.855469 195.867188 9.257812 199.820312 9.257812 C 202.582031 9.257812 205.285156 9.636719 207.933594 10.386719 C 210.570312 11.148438 212.855469 12.195312 214.789062 13.527344 L 213.0625 17.589844 C 211.042969 16.261719 208.878906 15.257812 206.582031 14.589844 C 204.28125 13.929688 202.027344 13.597656 199.820312 13.597656 C 195.59375 13.597656 192.410156 14.410156 190.277344 16.035156 C 188.132812 17.667969 187.0625 19.773438 187.0625 22.34375 C 187.0625 24.269531 187.652344 25.816406 188.828125 26.984375 C 189.996094 28.160156 191.464844 29.054688 193.230469 29.667969 C 195.003906 30.292969 197.386719 30.972656 200.375 31.707031 C 203.914062 32.582031 206.777344 33.4375 208.96875 34.285156 C 211.148438 35.136719 212.996094 36.421875 214.511719 38.140625 C 216.03125 39.867188 216.789062 42.199219 216.789062 45.136719 C 216.789062 47.570312 216.136719 49.785156 214.828125 51.789062 C 213.515625 53.78125 211.5 55.359375 208.789062 56.527344 C 206.074219 57.699219 202.742188 58.289062 198.789062 58.289062 Z M 198.789062 58.289062 " fill-opacity="1" fill-rule="nonzero"/></g><g clip-path="url(#24c4a15e77)"><path fill="#38b6ff" d="M 228.386719 -0.105469 L 246.9375 -0.105469 L 246.9375 67.652344 L 228.386719 67.652344 Z M 228.386719 -0.105469 " fill-opacity="1" fill-rule="nonzero"/></g><g clip-path="url(#7e21c135b0)"><path fill="#38b6ff" d="M 251.007812 -0.105469 L 269.558594 -0.105469 L 269.558594 67.652344 L 251.007812 67.652344 Z M 251.007812 -0.105469 " fill-opacity="0.749" fill-rule="nonzero"/></g><g clip-path="url(#b4606834a0)"><path fill="#38b6ff" d="M 273.628906 -0.105469 L 292.179688 -0.105469 L 292.179688 67.652344 L 273.628906 67.652344 Z M 273.628906 -0.105469 " fill-opacity="0.502" fill-rule="nonzero"/></g></svg>